{"title":"Singh vs Kaur (2013)-720p.DVDRip-x264.6Ch-Punjabi[NON-HINDI]-[E-","uid":8392918,"size":1477507267,"categoryP":"video","categoryS":"hd___movies","magnet":"?xt=urn:btih:3ac687be9414ad1b7f5bfecec350a8744826ef5c&amp;dn=Singh+vs+Kaur+%282013%29-720p.DVDRip-x264.6Ch-Punjabi%5BNON-HINDI%5D-%5BE-&amp;tr=udp%3A%2F%2Ftracker.openbittorrent.com%3A80&amp;tr=udp%3A%2F%2Fopen.demonii.com%3A1337&amp;tr=udp%3A%2F%2Ftracker.coppersurfer.tk%3A6969&amp;tr=udp%3A%2F%2Fexodus.desync.com%3A6969","seeders":2,"leechers":0,"uploader":"JagatjeetSandhu","files":4,"time":1366484642,"description":"[img]http://img401.imageshack.us/img401/967/singbskaur001.jpg[/img]\n\n[img]http://img267.imageshack.us/img267/4632/screensx.png[/img]\n\n[img]http://img593.imageshack.us/img593/362/57324661.png[/img]\n[img]http://img827.imageshack.us/img827/1497/92868933.png[/img]\n[img]http://img507.imageshack.us/img507/3022/74289323.png[/img]\n[img]http://img22.imageshack.us/img22/2299/98220625.png[/img]\n[img]http://img841.imageshack.us/img841/6544/45170950.png[/img]\n[img]http://img854.imageshack.us/img854/5992/28163751.png[/img]\n[img]http://img560.imageshack.us/img560/6901/46107137.png[/img]\n[img]http://img12.imageshack.us/img12/5079/75879139.png[/img]\n[img]http://img198.imageshack.us/img198/6040/94784671.png[/img]\n[img]http://img713.imageshack.us/img713/7705/38143282.png[/img]\n\n\nRip Information\n\nFormat                                   : Matroska \nFormat version                           : Version 4 / Version 2 \nFile size                                : 1.36 GiB \nDuration                                 : 2h 29mn \nOverall bit rate                         : 1 308 Kbps \nMovie name                               : Singh vs Kaur (2013)-720p.DVDRip-x264.6Ch-Punjabi-[E-SUB]\n\nVideo\n\nFormat                                   : AVC\nFormat/Info                              : Advanced Video Codec\nFormat profile                           : &lt;a class=&quot;__cf_email__&quot; href=&quot;/cdn-cgi/l/email-protection&quot; data-cfemail=&quot;d59dbcb2bd9599e6fbe4&quot;&gt;[email&amp;#160;protected]&lt;/a&gt;&lt;script cf-hash='f9e31' type=&quot;text/javascript&quot;&gt;\n/* &lt;![CDATA[ */!function(){try{var t=&quot;currentScript&quot;in document?document.currentScript:function(){for(var t=document.getElementsByTagName(&quot;script&quot;),e=t.length;e--;)if(t[e].getAttribute(&quot;cf-hash&quot;))return t[e]}();if(t&amp;&amp;t.previousSibling){var e,r,n,i,c=t.previousSibling,a=c.getAttribute(&quot;data-cfemail&quot;);if(a){for(e=&quot;&quot;,r=parseInt(a.substr(0,2),16),n=2;a.length-n;n+=2)i=parseInt(a.substr(n,2),16)^r,e+=String.fromCharCode(i);e=document.createTextNode(e),c.parentNode.replaceChild(e,c)}}}catch(u){}}();/* ]]&gt; */&lt;/script&gt;\nFormat settings, CABAC                   : Yes\nFormat settings, ReFrames                : 5 frames\nCodec ID                                 : V_MPEG4/ISO/AVC\nDuration                                 : 2h 29mn\nBit rate                                 : 858 Kbps\nWidth                                    : 1 280 pixels\nHeight                                   : 544 pixels\nDisplay aspect ratio                     : 2.35:1\nFrame rate mode                          : Constant\nFrame rate                               : 29.970 fps\nColor space                              : YUV\nChroma subsampling                       : 4:2:0\nBit depth                                : 8 bits\nScan type                                : Progressive\nBits/(Pixel*Frame)                       : 0.041\nStream size                              : 891 MiB (64%)\nTitle                                    : ????\nWriting library                          : x264 \n\nAudio\n\nFormat                                   : AC-3\nFormat/Info                              : Audio Coding 3\nMode extension                           : CM (complete main)\nFormat settings, Endianness              : Big\nCodec ID                                 : A_AC3\nDuration                                 : 2h 29mn\nBit rate mode                            : Constant\nBit rate                                 : 448 Kbps\nChannel(s)                               : 6 channels\nChannel positions                        : Front: L C R, Side: L R, LFE\nSampling rate                            : 48.0 KHz\nBit depth                                : 16 bits\nCompression mode                         : Lossy\nStream size                              : 478 MiB (34%)\nTitle                                    : ????\nLanguage                                 : Panjabi\nDefault                                  : Yes\n\n[img]http://i878.photobucket.com/albums/ab341/djrajiv/30m7gcojpg.gif[/img]\n[img]http://i1227.photobucket.com/albums/ee432/djrajiv2009/48655751775352955506.gif[/img]\n[img]http://img526.imageshack.us/img526/5956/hf7asze69mv.png[/img]\n","torrent":{"xt":"urn:btih:3ac687be9414ad1b7f5bfecec350a8744826ef5c","amp;dn":"Singh+vs+Kaur+%282013%29-720p.DVDRip-x264.6Ch-Punjabi%5BNON-HINDI%5D-%5BE-","amp;tr":["udp%3A%2F%2Ftracker.openbittorrent.com%3A80","udp%3A%2F%2Fopen.demonii.com%3A1337","udp%3A%2F%2Ftracker.coppersurfer.tk%3A6969","udp%3A%2F%2Fexodus.desync.com%3A6969"],"infoHash":"3ac687be9414ad1b7f5bfecec350a8744826ef5c","infoHashBuffer":{"type":"Buffer","data":[58,198,135,190,148,20,173,27,127,91,254,206,195,80,168,116,72,38,239,92]},"announce":[],"urlList":[]}}